<svg width="54" height="54" viewBox="0 0 54 54" fill="none" xmlns="http://www.w3.org/2000/svg">
<mask id="mask0_28_6257" style="mask-type:alpha" maskUnits="userSpaceOnUse" x="0" y="0" width="54" height="54">
<rect width="54" height="54" fill="#D9D9D9"/>
</mask>
<g mask="url(#mask0_28_6257)">
<path d="M20.7692 29.25H41.7983L34.8142 20.0767L29.4666 26.9134L25.9357 22.5433L20.7692 29.25ZM7.44244 45.8651C6.32044 45.8651 5.36194 45.4678 4.56694 44.6732C3.77231 43.8786 3.375 42.9202 3.375 41.7982V14.7116H6.75V41.7982C6.75 42 6.81488 42.1657 6.94463 42.2955C7.07438 42.4252 7.24031 42.4901 7.44244 42.4901H43.875V45.8651H7.44244ZM15.3174 37.9901C14.1951 37.9901 13.2366 37.5928 12.4419 36.7982C11.6473 36.0036 11.25 35.0452 11.25 33.9232V9.69244C11.25 8.57044 11.6473 7.61194 12.4419 6.81694C13.2366 6.02231 14.1951 5.625 15.3174 5.625H26.5241L31.0241 10.125H46.5576C47.6796 10.125 48.6381 10.5223 49.4331 11.3169C50.2277 12.1119 50.625 13.0704 50.625 14.1924V33.9232C50.625 35.0452 50.2277 36.0036 49.4331 36.7982C48.6381 37.5928 47.6796 37.9901 46.5576 37.9901H15.3174ZM15.3174 34.6157H46.5576C46.7597 34.6157 46.9256 34.5506 47.0554 34.4205C47.1851 34.2907 47.25 34.125 47.25 33.9232V14.1924C47.25 13.9903 47.1851 13.8244 47.0554 13.6946C46.9256 13.5649 46.7597 13.5 46.5576 13.5H29.6438L25.1438 9H15.3174C15.1153 9 14.9494 9.06488 14.8196 9.19463C14.6899 9.32438 14.625 9.49031 14.625 9.69244V33.9232C14.625 34.125 14.6899 34.2907 14.8196 34.4205C14.9494 34.5506 15.1153 34.6157 15.3174 34.6157Z" fill="#2456F7"/>
</g>
</svg>
